<?xml version="1.0" encoding="utf-8"?>
<!-- Generator: Adobe Illustrator 24.1.2, SVG Export Plug-In . SVG Version: 6.00 Build 0)  -->
<svg version="1.1" id="Layer_3" xmlns="http://www.w3.org/2000/svg" xmlns:xlink="http://www.w3.org/1999/xlink" x="0px" y="0px"
	 viewBox="0 0 196.99 254.6" style="enable-background:new 0 0 196.99 254.6;" xml:space="preserve">
<style type="text/css">
	.st0{fill-rule:evenodd;clip-rule:evenodd;fill:#006837;}
	.st1{stroke:#000000;stroke-width:3;stroke-miterlimit:10;}
	.st2{font-family:'Castellar';}
	.st3{font-size:329.664px;}
</style>
<path id="path-0" class="st0" d="M131.76,46.24c1.59,1.54,0.95,4.9-1.02,5.45c-1.53-0.47-2.89-0.99-3.81-1.67
	c0.69-0.81,2.64,0.32,3.56-0.13C130.91,48.68,131.34,47.46,131.76,46.24z"/>
<path id="path-1" class="st0" d="M115.2,44.59c-20.29,0.14-42.16,4.74-45.38,26.92c-2.59,17.85,16.67,34.42,38.86,44.92
	c7.86,3.72,15.74,5.7,22.88,10c-4.54,0.03-10.62-2.32-15.35-2.6c3.89,7.47,16.03,14.47,18.22,23.41
	c-8.57-11.44-28.56-19.01-40.31-29.38c0.56,6.54,6.5,12.67,7.28,18.24c-15.17-10.55-21.9-23.96-29.76-36.98
	c-1.95,4.35,0.83,9.39,1.36,13.79c-7.29-7.66-10.37-19.08-11.16-29.83c-3.95,2.81-6.07,8.43-9.18,12.52
	c-1.49-10.03,1.93-22.69,7.02-34.1c-5.26,0.48-9.02,7.31-14.53,8.95c4.18-13.71,15.51-20.36,26.66-24.89
	c-6.48-3.04-15.69-2.4-21.79-1.77c4.31-5.23,14.23-6.07,23.76-6.43C86.27,36.9,100.74,37.87,115.2,44.59z"/>
<path id="path-3" class="st0" d="M151.77,60.71c2.5,2.65,4.4,5.5,4.33,9.02C153.66,67.19,148.98,64.14,151.77,60.71z"/>
<path id="path-4" class="st0" d="M59.79,95.34c4.79,5.73,3.6,13.48,8.74,19.09c-1.52,2.33-2.58,5.38-4.32,7.38
	c-0.54,0.1-1.19,0.04-2.07-0.38c-1.8,2.11-4.02,5.9-4.07,9.17c2.86,1.13,3.96-0.45,4.8-2.43c7.24-1.94,19.36-6.73,28.41,1.68
	c-10.52-3.35-21.02-4.42-23.2,3.55c6.61,1.42,13.1-0.61,19.77,3.8c-7.11,0.58-16.35-2.12-20.42,3.15
	c7.11,4.85,19.02,8.08,19.3,15.25c-3.93-3.96-10.21-7.12-17.65-9.89c-1.66,0.56-2.47,2.43-4.41,2.57
	c-4.78-2.86-11.17-5.18-14.12-8.66c0.49-0.96,2.43,0.31,3.74,0.62c-3.88-8.72-10-16.69-7.06-27.73c1.05,1.89,1.71,3.9,3.33,5.6
	c0.86-6.26,0.26-13.27,3.22-19.37c1.8,1,1.04,2.88,1.08,4.47C57.23,101.69,57.64,97.17,59.79,95.34z"/>
<path id="path-6" class="st0" d="M90.22,230.23c0.89,0.81-0.75,1.61-1.71,1.11C88.73,230.42,89.62,230.55,90.22,230.23z"/>
<text transform="matrix(0.6652 0 0 1 58.2738 252.186)" class="st1 st2 st3">L</text>
<path id="path-7" class="st0" d="M137.82,78.72c-1.5,1.32,0.18,3.96-0.34,6.03c-0.24,0.96-1.41,1.71-1.35,2.61
	c0.17,2.38,3.08,2.66,3.15,4.85c-15.8-3.85-24.06-14.76-27.98-24.41c4.71,3.16,6.5,7.3,11.81,10.25c0.73-2.22-0.88-3.64,0.34-6.03
	c2.5,3.1,1.73,7.3,5.8,9.87c2.8-1.93,2.7-7.31,3.1-10.19c-2.62-3.33-7.77-5.79-7.97-9.94c3.23,1.51,3.57,3.99,7.38,5.3
	c3.04-7.67-14.46-10.7-13.79-18.45c1.37,0.61,2.48,1.31,3.21,2.14c-0.31-1.96-3.14-5.39-4.76-7.8c-13.57-5.95-24.96-5.12-34.87-8.36
	c8.93-6.2,22.51-5.24,38.44-0.64c-2.81-9.45-9.75-19.82-10.34-30.92c1.67,0.1,1.91,2.14,2.39,3.22c4.24,9.43,8.5,20.55,15.32,29.23
	c1.54-11.16,7-23.13,16.51-26.02c-6.82,5.61-11.13,20.26-8.46,28.14c5.81-5.86,11.09-12.54,20.93-12.19
	c-2.92,2.85-10.06,4.03-12.65,8.58c-2.9,5.1-2.72,10.38,0.15,14.74c3.01-3,3.83-9.39,7.48-11.4c-0.83,6.02-2.49,12.31,0.19,17.14
	c5.63-3.19,10.37-10.21,17.13-10.1c-4.77,5.65-10.71,8.3-12.02,15.63c-1.11,6.23,2.36,14.94,5.47,19.66
	c1.29,1.96,6.72,5.98,6.43,8.04c-0.3,2.15-3.84,2.38-5.22,3.65c-3.09,2.83-2.85,6.8-5.17,9.82c-2.54-3.44,1.16-9-0.39-12.77
	c-1.96-0.99-1.99,0.98-3.95-0.01c-3.06-5.51-5.95-11.07-9.69-16.35c-1.14,0.11-1.85,0.89-2.7,1.45c3.84,7.12,4.33,14.58,6.9,21.86
	c1.37,3.88,3.63,7.73,5.16,11.7c1.51,3.93,3.25,7.72,4.77,11.56c-2.65-3.13-4.09-6.82-5.97-10.61c-1.83-3.67-4.56-7.03-6.37-10.75
	C142.91,91.14,143.96,83.83,137.82,78.72z M126.49,51.9c-0.92,0.45-2.87-0.68-3.56,0.13c0.92,0.67,2.28,1.2,3.81,1.67
	c1.97-0.55,2.61-3.91,1.02-5.45C127.34,49.46,126.91,50.68,126.49,51.9z M152.1,71.73c0.07-3.52-1.83-6.37-4.33-9.02
	C144.98,66.14,149.66,69.19,152.1,71.73z"/>
<path id="path-5" class="st0" d="M168.37,162.1c-3.61-2.01-6.29-4.32-9.63-6.42c4.65,11.69,10.82,25.2,7.95,40.33
	c-3.41-3.67-3.12-11.31-7.24-15.83c-4.92,22.04-19.71,34.5-38.04,38.69c4.34-4.08,10.35-5.57,12.46-13.09
	c-9.43,1.53-18.44,3.71-32.36-1.68c8.6-0.63,17.64,0.28,25.62-1.68c12.33-3.02,24.78-10.47,28.69-23.16
	c6.52-21.17-13.22-36.05-30.54-49.89c0.06-0.38,0.28-0.51,0.6-0.47C145.37,137.09,161.06,148.89,168.37,162.1z"/>
<path id="path-8" class="st0" d="M137.35,145.18c8.32,9.51,15.83,23.82,9.29,37.72c-7.24,15.39-31.17,20.94-52.99,14.71
	c-11.49-3.28-20.98-7.77-28.94-12.79c-4.1-2.59-8.66-5.37-10.56-8.79c4.96,0.46,11.82,3.88,15.74,2.74
	c-8.33-5.61-23.41-8.93-28.88-15.5c3.3-0.22,9.08,3.39,11.32,1.54c-1.12-3.51-5.73-4.95-8.95-5.84c-11.41-3.16-26.53,1.04-30.94,9.4
	c-8.27,15.67,3.73,31.58,24.42,37.17c7.57,2.05,14.49,1.55,21.97,2.51c-9.19,3.52-26.4,0.35-39.74-6.98
	c0.61,4.36,8.76,8.8,16.12,11.75c12.92,5.18,27.12,5.95,37.75,7.66c-10.27,3.35-26.67-2.73-39.63-3.53
	c4.16,4.36,11.67,6.47,19.04,9.69c26.61,11.64,49.43,10.4,64.93,2.76c-0.42-0.92-2.68-0.73-3.35-0.48c0.32-0.99,5.11-1.37,6.73-0.39
	c-5.76,5.21-15.44,7.57-24.61,8.87c-15.85,2.25-32.77-0.64-56.95-10.57c2.21,3.6,6.37,7.22,10.71,10.89
	c4.28,3.62,9.43,6.61,13.59,10.19c-25.86-9.71-32.99-25.76-49.37-38.67c-1.18,5.28,3.3,10.39,6.66,14.95
	c3.48,4.73,8.21,9.07,11.04,13.74c-21.9-17.86-35.68-38.47-27.39-66.55c-1.88-0.55-3.26,2.14-4.37,1.21
	c3.09-7.88,9.9-10.01,13.73-16.75c3.8-1.64,8.02-2.62,12.23-3.6c0.45-0.99-2.04-1.7-0.54-2.24c3.69-0.24,8.39,1.08,12.32,1.21
	c-0.43-1.47-3.18-2.15-4.07-3.46c6.9,0.51,14.47,5.27,19.56,8.17c0.86-0.84-1.31-2.96-1.08-4.47c5.98,3.71,7.98,8.77,12.64,12.93
	c0.88-2.09-0.99-3.25-0.37-5.25c7.84,5.5,9.24,13.18,14.76,19.47c0.06-3.6-2.38-6.36-2.24-10c8.28,6.79,12.24,15.04,20.03,21.99
	c0.44-4.18-2.56-9.53-3.92-14c7.76,3.65,11.25,11.07,17.2,16.22c2.16-3.63-2.42-8.65-1.6-11.83c6.6,3.68,11.28,8.01,16.41,12.19
	c0.37-3.1-6.54-7.45-6.47-10.45c4.71,0.87,9.57,1.96,14.07,2.5c-1.11-1.69-5.33-2.32-6.53-3.98c6.46-2.06,14.61-1.49,18.16-8.03
	c-3.9-0.71-5.93,1.46-9.89,0.66c3-3.04,7.47-6.25,7.97-11.57c-0.87-1.46-1.98,0.67-3.45-0.18
	C142.43,155.11,138.91,150.48,137.35,145.18z"/>
<path id="path-2" class="st0" d="M120.81,49.95c-3.8,2.1-8.9,1.78-13.02,3.33c-4.04,1.52-6.61,4.9-11.48,5.23
	c-0.06-1.86,1.64-4.32-0.26-5.56c-6.03,0.37-10.57,3.05-14,7.43c0.87,1.46,2.54,0.19,3.74,0.62c0.38,1.39-0.21,3.12,0.69,4.34
	c1.44,0.5,2.87,1,4.31,1.5c-3.37,8.58-2.06,15.58,3.66,21.08c4.19-0.09,3.87-7.14,5.88-10.59c2.88-0.55,4.64-2.84,5.39-6.66
	c1.84-0.29,4.17,0.19,5.84-0.36c8.03,7.05,15.64,14.24,19.32,22.77c-5.6-3.6-9.23-12.97-18.73-14.36c-0.79,1.88,3.47,2.05,4.07,3.46
	c1.82,7.65,5.2,19.4-2.99,26.28c1.81-8.05,4.19-16.3-2.66-21.42c-2.34,1.08-0.74,4.05-0.94,6.5c-0.45,5.38-3.54,10.72-6.94,13.64
	c-0.03-4.59,6.95-15.49,1.3-17.65c-4.65-1.78-6.14,7.06-6.27,10.46c-1.12,1.21-0.76-2.32-2.61-2.61c-0.37,1.31,0.92,3.12-0.49,3.93
	c-9.95-7.57-13.71-17.23-15.95-27.4c-4.19,5.65,1.63,12.52,2.94,18.1c-5.74-7.82-11.57-17.18-8.26-26.78
	c4.09-11.87,20.61-15.62,32.98-16.54C111.03,48.32,116.37,47.93,120.81,49.95z"/>
</svg>
